<?xml version="1.0" encoding="utf-8"?>
<!-- Generator: Adobe Illustrator 21.1.0, SVG Export Plug-In . SVG Version: 6.00 Build 0)  -->
<svg version="1.1" id="Capa_1" xmlns="http://www.w3.org/2000/svg" xmlns:xlink="http://www.w3.org/1999/xlink" x="0px" y="0px"
	 viewBox="0 0 192 184" style="enable-background:new 0 0 192 184;" xml:space="preserve">
<style type="text/css">
	.st0{fill:none;}
	.st1{fill:#27997C;}
	.st2{fill:#878787;}
</style>
<path class="st0" d="M148.9,42.7c-5.9-5.9-13-8.8-21.3-8.8h-19v60.4h19c8.3,0,15.4-2.9,21.3-8.8s8.9-13,8.9-21.4
	C157.8,55.7,154.9,48.6,148.9,42.7z"/>
<g>
	<path class="st1" d="M179.2,11.5H12.8v130.4l43,0v0c0.1,0,0.2,0,0.3,0l0.7,0v-0.1c8.6-0.3,16-3.4,22.2-9.6
		c6.5-6.5,9.7-14.3,9.7-23.5c0-9.1-3.2-16.9-9.7-23.4C73,79.1,65.4,74.6,56.4,71.7c-5.6-2.6-10-5.4-13.2-8.6
		c-3.4-3.4-5.1-7.6-5.1-12.4c0-4.9,1.7-9,5.1-12.4s7.5-5.1,12.3-5.1s8.9,1.7,12.3,5.1c1.9,1.9,3.3,4,4.1,6.3l5.7-2.2
		c-1-3.1-2.8-5.8-5.3-8.3c-4.7-4.6-10.3-7-16.8-7c-6.6,0-12.2,2.3-16.8,7s-6.9,10.2-6.9,16.6c0,6.6,2.3,12.2,6.9,16.8
		c4.6,4.6,10.9,8.3,18.9,10.9c6.7,2.7,12.4,6.4,17,11.1c5.3,5.3,7.9,11.6,7.9,19c0,7.4-2.6,13.8-7.9,19.1
		c-5.2,5.2-11.4,7.8-18.6,7.9H17.5V16.2h157v119.2h-66.2v-33.6h19c10.1,0,18.7-3.6,25.8-10.7c7.1-7.2,10.7-15.8,10.7-25.9
		c0-10-3.6-18.6-10.7-25.8c-6-6-13.2-9.5-21.8-10.7H102v112l77.2,0.2V11.5z M108.3,35h19c8.3,0,15.4,2.9,21.3,8.8
		c5.9,5.9,8.9,13,8.9,21.3c0,8.4-3,15.5-8.9,21.4c-5.9,5.9-13,8.8-21.3,8.8h-19V35z"/>
	<g>
		<path class="st2" d="M15.1,151v21.2h-1.2V151H15.1z"/>
		<path class="st2" d="M25,165.2c-1-0.5-1.7-1-2.1-1.4c-0.6-0.6-0.9-1.3-0.9-2.2s0.3-1.6,0.9-2.2c0.6-0.6,1.3-0.9,2.2-0.9
			c0.9,0,1.6,0.3,2.1,0.9c0.5,0.5,0.8,1.2,0.8,1.9v0.1l-1,0.4c-0.1-0.7-0.3-1.2-0.6-1.5c-0.3-0.3-0.8-0.5-1.3-0.5
			c-0.5,0-1,0.2-1.4,0.6c-0.4,0.4-0.6,0.8-0.6,1.4s0.2,1,0.6,1.4c0.2,0.2,0.7,0.6,1.4,1c1.1,0.6,1.9,1.2,2.4,1.6
			c0.7,0.8,1.1,1.7,1.1,2.7c0,1.1-0.4,2-1.1,2.8c-0.8,0.8-1.7,1.1-2.7,1.1c-1.1,0-2-0.4-2.7-1.1c-0.7-0.8-1.1-1.6-1.1-2.5l1.2-0.3
			c0,0.8,0.3,1.4,0.8,1.9c0.5,0.5,1.2,0.8,1.9,0.8c0.7,0,1.4-0.3,1.9-0.8c0.5-0.5,0.8-1.2,0.8-1.9c0-0.7-0.3-1.4-0.8-1.9
			C26.5,166.1,25.9,165.7,25,165.2z"/>
		<path class="st2" d="M39.1,160.2c-0.9,0.1-1.7,0.7-2.5,1.6c-0.8,1-1.2,1.9-1.2,2.9v7.5h-1.2v-13h1.2v2.8c0.5-1.3,1.5-2.3,3.1-2.9
			L39.1,160.2z"/>
		<path class="st2" d="M57.8,172.1h-1.2v-2.7c-0.2,0.3-0.5,0.6-0.8,0.9c-1.4,1.4-3.1,2.1-5.2,2.1c-2,0-3.7-0.7-5.1-2.1
			c-1.4-1.4-2.1-3.1-2.1-5.1c0-2,0.7-3.7,2.1-5.2c1.4-1.4,3.1-2.1,5.1-2.1c2,0,3.7,0.7,5.2,2.1c0.3,0.3,0.5,0.6,0.8,0.9v-1.8h1.2
			V172.1z M56.7,166.4v-2.4c-0.2-1.2-0.8-2.2-1.7-3.1c-1.2-1.2-2.6-1.8-4.3-1.8c-1.7,0-3.1,0.6-4.2,1.8c-1.2,1.2-1.8,2.6-1.8,4.3
			c0,1.7,0.6,3.1,1.8,4.2c1.2,1.2,2.6,1.8,4.2,1.8c1.7,0,3.1-0.6,4.3-1.8C55.9,168.6,56.4,167.6,56.7,166.4z"/>
		<path class="st2" d="M64.5,164.6c0,0.2,0,0.4,0,0.7c0,1.7,0.6,3.1,1.8,4.2c1.2,1.2,2.6,1.8,4.2,1.8s3.1-0.6,4.3-1.8
			c0.2-0.2,0.4-0.4,0.6-0.6l1.3,0.5c-0.1,0.2-0.5,0.6-0.9,1.1c-1.4,1.4-3.1,2.1-5.2,2.1c-2,0-3.7-0.7-5.1-2.1
			c-1.4-1.4-2.1-3.1-2.1-5.1c0-2,0.7-3.7,2.1-5.2c1.4-1.4,3.1-2.1,5.1-2.1c2,0,3.7,0.7,5.2,2.1c1.2,1.3,1.9,2.8,1.9,4.5H64.5z
			 M64.7,163.4h11.4c-0.3-0.9-0.8-1.7-1.4-2.4c-1.2-1.2-2.6-1.8-4.3-1.8s-3.1,0.6-4.3,1.8C65.5,161.7,65,162.5,64.7,163.4z"/>
		<path class="st2" d="M84.1,151v21.2h-1.2V151H84.1z"/>
		<path class="st2" d="M107.2,160.4c-1.5-0.5-2.7-1.2-3.6-2.1c-0.9-0.9-1.3-1.9-1.3-3.2c0-1.2,0.4-2.3,1.3-3.1
			c0.9-0.9,1.9-1.3,3.2-1.3c1.2,0,2.3,0.4,3.2,1.3c0.5,0.5,0.8,1,1,1.6l-1.1,0.4c-0.2-0.4-0.4-0.8-0.8-1.2c-0.6-0.6-1.4-1-2.3-1
			s-1.7,0.3-2.3,1c-0.6,0.6-1,1.4-1,2.3c0,0.9,0.3,1.7,1,2.3c0.6,0.6,1.4,1.1,2.5,1.6c1.7,0.5,3.1,1.4,4.3,2.6
			c1.2,1.2,1.8,2.7,1.8,4.4c0,1.7-0.6,3.2-1.8,4.4c-1.2,1.2-2.7,1.8-4.4,1.8c-1.7,0-3.2-0.6-4.4-1.9c-1-1-1.6-2.1-1.8-3.4l1.1-0.4
			c0.1,1.1,0.6,2.2,1.5,3c1,1,2.2,1.5,3.6,1.5c1.4,0,2.6-0.5,3.6-1.5c1-1,1.5-2.2,1.5-3.6c0-1.4-0.5-2.6-1.5-3.6
			C109.6,161.6,108.5,160.9,107.2,160.4z"/>
		<path class="st2" d="M120.4,154.9c0.2,0.2,0.3,0.5,0.3,0.8c0,0.3-0.1,0.6-0.3,0.9s-0.5,0.3-0.8,0.3c-0.3,0-0.6-0.1-0.8-0.3
			c-0.2-0.2-0.4-0.5-0.4-0.9c0-0.3,0.1-0.6,0.4-0.8c0.2-0.2,0.5-0.3,0.8-0.3C119.9,154.5,120.1,154.7,120.4,154.9z M120.1,159.1v13
			h-1.2v-13H120.1z"/>
		<path class="st2" d="M127.2,164.6c0,0.2,0,0.4,0,0.7c0,1.7,0.6,3.1,1.8,4.2c1.2,1.2,2.6,1.8,4.2,1.8c1.7,0,3.1-0.6,4.3-1.8
			c0.2-0.2,0.4-0.4,0.6-0.6l1.3,0.5c-0.1,0.2-0.5,0.6-0.9,1.1c-1.4,1.4-3.1,2.1-5.2,2.1c-2,0-3.7-0.7-5.1-2.1
			c-1.4-1.4-2.1-3.1-2.1-5.1c0-2,0.7-3.7,2.1-5.2c1.4-1.4,3.1-2.1,5.1-2.1c2,0,3.7,0.7,5.2,2.1c1.2,1.3,1.9,2.8,1.9,4.5H127.2z
			 M127.4,163.4h11.4c-0.3-0.9-0.8-1.7-1.4-2.4c-1.2-1.2-2.6-1.8-4.3-1.8c-1.7,0-3.1,0.6-4.3,1.8
			C128.2,161.7,127.7,162.5,127.4,163.4z"/>
		<path class="st2" d="M150.1,160.2c-0.9,0.1-1.7,0.7-2.5,1.6c-0.8,1-1.2,1.9-1.2,2.9v7.5h-1.2v-13h1.2v2.8c0.5-1.3,1.5-2.3,3.1-2.9
			L150.1,160.2z"/>
		<path class="st2" d="M159.4,160.2c-0.9,0.1-1.7,0.7-2.5,1.6c-0.8,1-1.2,1.9-1.2,2.9v7.5h-1.2v-13h1.2v2.8c0.5-1.3,1.5-2.3,3.1-2.9
			L159.4,160.2z"/>
		<path class="st2" d="M178.1,172.1h-1.2v-2.7c-0.2,0.3-0.5,0.6-0.8,0.9c-1.4,1.4-3.1,2.1-5.2,2.1c-2,0-3.7-0.7-5.1-2.1
			c-1.4-1.4-2.1-3.1-2.1-5.1c0-2,0.7-3.7,2.1-5.2c1.4-1.4,3.1-2.1,5.1-2.1c2,0,3.7,0.7,5.2,2.1c0.3,0.3,0.5,0.6,0.8,0.9v-1.8h1.2
			V172.1z M176.9,166.4v-2.4c-0.2-1.2-0.8-2.2-1.7-3.1c-1.2-1.2-2.6-1.8-4.3-1.8s-3.1,0.6-4.2,1.8c-1.2,1.2-1.8,2.6-1.8,4.3
			c0,1.7,0.6,3.1,1.8,4.2c1.2,1.2,2.6,1.8,4.2,1.8s3.1-0.6,4.3-1.8C176.1,168.6,176.6,167.6,176.9,166.4z"/>
	</g>
</g>
</svg>
